<svg xmlns="http://www.w3.org/2000/svg" viewBox="0 0 332.09 219.41"><defs><style>.cls-1{fill:#0f1929;}.cls-2{fill:#ea912e;}.cls-3{fill:#f2bb81;}</style></defs><title>Asset 1</title><g id="Layer_2" data-name="Layer 2"><g id="Layer_1-2" data-name="Layer 1"><path class="cls-1" d="M328.59,139.63h-48.3a69.58,69.58,0,0,0,.62-9.27,71.23,71.23,0,0,0-.76-10.27l45.26-10.14a3.5,3.5,0,1,0-1.53-6.83l-45.06,10.1a78.92,78.92,0,0,0-2.56-8.48,23.81,23.81,0,0,1-1.33-10.83l8.5-76A16.12,16.12,0,0,0,259.3,2.21L201,36a13.59,13.59,0,0,1-9.56,1.52,131.14,131.14,0,0,0-52.41,0A13.59,13.59,0,0,1,129.49,36L71.21,2.21A16.12,16.12,0,0,0,47.1,17.94l8.5,76a23.82,23.82,0,0,1-1.33,10.83,79,79,0,0,0-2.48,8.15L8.22,103.12a3.5,3.5,0,1,0-1.53,6.83l43.73,9.8a71.29,71.29,0,0,0-.81,10.61,69.58,69.58,0,0,0,.62,9.27H3.5a3.5,3.5,0,0,0,0,7h48a74,74,0,0,0,7,18.07L6.69,176.31a3.5,3.5,0,1,0,1.53,6.83L62.34,171c19.19,28.74,58.07,48.4,102.92,48.4,45,0,84-19.8,103.13-48.71l55.49,12.43a3.5,3.5,0,1,0,1.53-6.83l-53.25-11.93A73.87,73.87,0,0,0,279,146.63h49.62a3.5,3.5,0,0,0,0-7Z"/><circle class="cls-2" cx="220.8" cy="117.82" r="15.27"/><circle class="cls-2" cx="109.9" cy="117.82" r="15.27"/><path class="cls-3" d="M176.91,173.21a13.77,13.77,0,0,1-13.75-13.75,2.5,2.5,0,0,1,5,0A8.75,8.75,0,1,0,184.44,155a2.5,2.5,0,1,1,4.29-2.56,13.75,13.75,0,0,1-11.82,20.78Z"/><path class="cls-3" d="M153.79,173.21A13.75,13.75,0,0,1,142,152.42a2.5,2.5,0,0,1,4.3,2.56,8.75,8.75,0,1,0,16.28,4.47,2.5,2.5,0,0,1,5,0A13.77,13.77,0,0,1,153.79,173.21Z"/></g></g></svg>